:SAMPLES-PER-SECOND 30
:FULLY-SPECIFIED
:DEGREES
184
root  -8.87416 39.3737 42.579 4.15364 -10.4208 2.75656
RightUpLeg  -19.7233 -5.50196 3.81854
RightLeg  22.8922 17.4818 0.214034
RightFoot  -9.56906 0.135676 -3.38778
RightToes  -5.82073e-011 -3.18055e-015 -2.98177e-016
Spine  12.1485 -0.489598 5.95654
Spine1  -3.3979 0.237982 -2.53533
HEad  -20.8886 10.1655 -5.38108
LeftShoulder1  -3.88251e-019 9.70628e-020 -3.87848e-018
LeftArm  -7.62312 46.1484 -71.9311
LeftForeArm  -33.0108 -51.2438 12.3867
LeftHand  -0.509169 -8.30988 4.75005
RightShoulder  7.26902 10.4537 34.3831
RightArm  29.5659 -40.0079 22.0166
RightForeArm  -18.9383 50.6535 -32.068
RightHand  -2.38993 8.8489 -19.2956
LeftUpLeg  -16.7649 0.114741 -1.88885
LeftLeg  18.503 -0.143847 5.99738
LeftFoot  -7.01459 0.32405 -6.47609
LeftToes  5.79026e-011 9.70705e-012 -3.73859e-011
185
root  -9.11529 39.7477 42.5428 3.98838 -9.71016 2.52781
RightUpLeg  -16.595 -2.70268 3.4115
RightLeg  17.5297 14.1559 0.150426
RightFoot  -8.05826 0.145229 -2.74612
RightToes  -5.82073e-011 -3.18055e-015 -2.98177e-016
Spine  10.1903 -0.407322 5.93805
Spine1  -3.5321 0.297671 -2.86364
HEad  -17.7867 10.0132 -4.95102
LeftShoulder1  -3.88251e-019 9.70628e-020 -3.87848e-018
LeftArm  -2.47384 41.2172 -73.1407
LeftForeArm  -23.9281 -55.4519 15.4038
LeftHand  -0.305266 -9.28873 2.80127
RightShoulder  6.80548 10.256 32.4117
RightArm  34.7381 -36.9265 23.1501
RightForeArm  -25.5714 56.7174 -40.8262
RightHand  -2.4232 9.27829 -18.9992
LeftUpLeg  -13.5239 -3.83205 -1.01378
LeftLeg  12.9609 3.07585 5.52957
LeftFoot  -5.74943 0.506945 -8.14304
LeftToes  5.79026e-011 9.70705e-012 -3.73859e-011
186
root  -9.31995 39.943 42.3922 2.50077 -8.85614 1.95299
RightUpLeg  -13.1699 0.169264 3.54448
RightLeg  14.0087 10.2984 0.142346
RightFoot  -6.98114 0.126423 -2.01454
RightToes  -5.82073e-011 -3.18055e-015 -2.98177e-016
Spine  10.2801 -0.530844 5.53401
Spine1  -3.55735 0.0175627 -1.61133
HEad  -16.5006 9.90561 -5.25478
LeftShoulder1  -3.88251e-019 9.70628e-020 -3.87848e-018
LeftArm  0.856083 34.5266 -74.9018
LeftForeArm  -14.2932 -57.3354 17.4532
LeftHand  -0.396638 -10.7096 3.23176
RightShoulder  6.34705 10.0182 30.4841
RightArm  37.0474 -31.4553 26.024
RightForeArm  -34.144 60.3712 -48.1483
RightHand  -2.37983 8.90816 -19.1392
LeftUpLeg  -10.5743 -5.9211 -0.303864
LeftLeg  10.1312 4.81365 5.47631
LeftFoot  -4.73898 0.601557 -8.41118
LeftToes  5.79026e-011 9.70705e-012 -3.73859e-011
187
root  -9.48372 39.9753 42.1812 0.963294 -7.65723 0.976823
RightUpLeg  -10.2834 0.779057 4.33176
RightLeg  11.948 8.09068 0.625756
RightFoot  -6.96125 0.0434965 -0.448644
RightToes  -5.82073e-011 -3.18055e-015 -2.98177e-016
Spine  10.8131 -0.73061 5.3735
Spine1  -2.97838 -0.374807 0.151058
HEad  -17.1112 9.41205 -5.96693
LeftShoulder1  -3.88251e-019 9.70628e-020 -3.87848e-018
LeftArm  3.18542 26.2554 -77.3122
LeftForeArm  -6.97864 -56.2094 17.1577
LeftHand  -0.853787 -11.1838 6.43565
RightShoulder  6.09882 9.74675 29.7063
RightArm  37.6547 -23.6385 28.8993
RightForeArm  -39.6436 61.7731 -51.4871
RightHand  -2.5181 8.63219 -20.5904
LeftUpLeg  -9.14386 -6.00859 0.757154
LeftLeg  9.89913 4.16499 5.43855
LeftFoot  -4.43953 0.558351 -7.51546
LeftToes  5.79026e-011 9.70705e-012 -3.73859e-011
188
root  -9.59578 39.8552 41.9481 0.766378 -6.61744 -0.0947127
RightUpLeg  -10.1281 0.465768 5.15448
RightLeg  12.3577 6.88039 1.21102
RightFoot  -8.17866 -0.036386 1.31451
RightToes  -5.82073e-011 -3.18055e-015 -2.98177e-016
Spine  10.46 -0.781649 5.53106
Spine1  -2.32038 -0.681965 1.78721
HEad  -18.8232 9.07128 -6.62333
LeftShoulder1  -3.88251e-019 9.70628e-020 -3.87848e-018
LeftArm  3.54787 18.755 -80.2227
LeftForeArm  -2.52768 -52.8227 15.2483
LeftHand  -1.36514 -11.1706 10.0829
RightShoulder  6.13702 9.58899 30.2468
RightArm  36.6849 -15.8284 31.524
RightForeArm  -37.1882 60.9095 -49.1119
RightHand  -2.75071 8.79263 -22.201
LeftUpLeg  -10.5642 -5.68354 2.29407
LeftLeg  12.1837 2.58592 5.38372
LeftFoot  -5.41375 0.413745 -6.36216
LeftToes  5.79026e-011 9.70705e-012 -3.73859e-011
189
root  -9.66652 39.655 41.7219 1.14914 -6.17305 -0.765487
RightUpLeg  -11.9967 0.368742 5.83305
RightLeg  14.8606 6.19075 1.03333
RightFoot  -9.53931 -0.0393966 1.99819
RightToes  -5.82073e-011 -3.18055e-015 -2.98177e-016
Spine  10.1211 -0.698168 5.73411
Spine1  -2.40325 -0.809992 2.98838
HEad  -20.515 9.30672 -6.77473
LeftShoulder1  -3.88251e-019 9.70628e-020 -3.87848e-018
LeftArm  1.24889 14.2876 -83.2888
LeftForeArm  -0.623227 -49.0324 13.3007
LeftHand  -1.59797 -11.6193 11.4396
RightShoulder  6.26382 9.64494 30.8245
RightArm  33.2479 -11.2831 34.9347
RightForeArm  -27.5062 57.7655 -42.6194
RightHand  -2.81111 8.92749 -22.4655
LeftUpLeg  -13.274 -4.289 3.30406
LeftLeg  15.8614 1.07398 5.68812
LeftFoot  -7.06832 0.277783 -5.64587
LeftToes  5.79026e-011 9.70705e-012 -3.73859e-011
190
root  -9.71579 39.4683 41.5264 0.571353 -6.29804 -0.891031
RightUpLeg  -12.978 0.441828 6.3269
RightLeg  17.2208 6.19004 0.213222
RightFoot  -10.1974 -0.0138786 1.60391
RightToes  -5.82073e-011 -3.18055e-015 -2.98177e-016
Spine  10.7205 -0.726162 6.08895
Spine1  -2.76139 -0.751824 2.99213
HEad  -21.2496 9.75474 -6.18358
LeftShoulder1  -3.88251e-019 9.70628e-020 -3.87848e-018
LeftArm  -2.08431 12.776 -85.9378
LeftForeArm  -1.83626 -46.1771 11.8777
LeftHand  -1.51794 -11.8607 10.7253
RightShoulder  6.22426 9.76251 30.357
RightArm  26.5099 -10.8673 39.9952
RightForeArm  -16.3516 52.8794 -35.2626
RightHand  -2.69308 8.87631 -21.6199
LeftUpLeg  -14.7382 -1.41101 3.28065
LeftLeg  19.7918 0.847434 6.77605
LeftFoot  -8.80061 0.194089 -5.8426
LeftToes  5.79026e-011 9.70705e-012 -3.73859e-011
191
root  -9.73663 39.3573 41.3628 -0.755577 -6.77576 -0.783255
RightUpLeg  -12.4335 0.530435 6.53914
RightLeg  18.3067 6.69869 -0.315959
RightFoot  -10.5022 -0.00244421 1.35626
RightToes  -5.82073e-011 -3.18055e-015 -2.98177e-016
Spine  11.297 -0.978705 7.02016
Spine1  -2.25156 -0.557638 1.39673
HEad  -20.9404 10.1075 -5.34062
LeftShoulder1  -3.88251e-019 9.70628e-020 -3.87848e-018
LeftArm  -3.55807 12.6412 -87.3962
LeftForeArm  -6.8992 -44.0141 10.6733
LeftHand  -1.51505 -11.1913 11.1378
RightShoulder  6.07824 9.83907 29.3991
RightArm  17.3007 -12.3196 46.2043
RightForeArm  -9.14314 47.0403 -28.6498
RightHand  -2.5595 8.32312 -21.3863
LeftUpLeg  -14.8364 1.88404 2.86542
LeftLeg  23.6377 2.41181 8.66969
LeftFoot  -10.3064 0.135687 -6.71085
LeftToes  5.79026e-011 9.70705e-012 -3.73859e-011
192
root  -9.71639 39.315 41.2365 -1.478 -7.52457 -0.789285
RightUpLeg  -12.0118 0.396873 6.56744
RightLeg  18.6829 7.5003 -0.115827
RightFoot  -10.8812 -0.00718926 1.87455
RightToes  -5.82073e-011 -3.18055e-015 -2.98177e-016
Spine  10.8302 -1.18852 8.57212
Spine1  -1.14694 -0.199038 -0.950638
HEad  -20.0875 10.5961 -5.13663
LeftShoulder1  -3.88251e-019 9.70628e-020 -3.87848e-018
LeftArm  -2.25808 13.335 -87.4993
LeftForeArm  -13.3711 -42.3239 9.66581
LeftHand  -1.77042 -10.6593 13.3611
RightShoulder  6.05561 9.87006 29.2112
RightArm  8.41472 -13.416 51.5337
RightForeArm  -7.96205 40.848 -23.0906
RightHand  -2.54807 7.09697 -23.2987
LeftUpLeg  -15.0087 4.88087 2.4615
LeftLeg  27.2249 4.11695 10.8641
LeftFoot  -11.1687 0.0899012 -7.11127
LeftToes  5.79026e-011 9.70705e-012 -3.73859e-011
193
root  -9.67169 39.3051 41.1526 -1.3584 -8.53043 -0.984528
RightUpLeg  -12.2559 0.209505 6.62413
RightLeg  18.7908 8.30065 0.497939
RightFoot  -11.17 -0.0173051 2.74108
RightToes  -5.82073e-011 -3.18055e-015 -2.98177e-016
Spine  10.0094 -1.07685 10.2189
Spine1  -0.773817 0.343108 -2.87098
HEad  -18.9502 11.3765 -5.73683
LeftShoulder1  -3.88251e-019 9.70628e-020 -3.87848e-018
LeftArm  -0.120617 15.7922 -86.9096
LeftForeArm  -15.8317 -41.9932 9.40985
LeftHand  -1.80442 -10.5766 13.6677
RightShoulder  6.20225 9.89414 29.9601
RightArm  2.56605 -14.499 54.1846
RightForeArm  -12.2189 35.3737 -18.8983
RightHand  -2.55883 5.54672 -26.5563
LeftUpLeg  -15.3884 6.97381 2.08212
LeftLeg  29.9121 4.95254 12.4845
LeftFoot  -11.5001 0.0592254 -6.45352
LeftToes  5.79026e-011 9.70705e-012 -3.73859e-011
194
root  -9.62316 39.3089 41.0943 -1.17865 -9.68233 -1.2742
RightUpLeg  -12.3003 0.108289 6.78222
RightLeg  18.515 9.15279 1.21146
RightFoot  -11.2287 -0.030575 3.59458
RightToes  -5.82073e-011 -3.18055e-015 -2.98177e-016
Spine  9.73546 -0.72518 11.2991
Spine1  -1.25461 0.923181 -3.88492
HEad  -17.6329 12.274 -6.45864
LeftShoulder1  -3.88251e-019 9.70628e-020 -3.87848e-018
LeftArm  0.599661 20.3542 -86.1968
LeftForeArm  -11.2535 -43.1064 10.0741
LeftHand  -1.39778 -10.3256 10.8582
RightShoulder  6.37005 9.92399 30.806
RightArm  0.870467 -16.6887 54.0529
RightForeArm  -19.3717 31.771 -16.2759
RightHand  -2.28317 3.7728 -28.1016
LeftUpLeg  -14.9987 8.30823 1.74556
LeftLeg  30.9907 5.04442 13.0359
LeftFoot  -12.3177 0.00593007 -5.85825
LeftToes  5.79026e-011 9.70705e-012 -3.73859e-011
195
root  -9.56519 39.3222 41.0367 -1.20197 -10.677 -1.60603
RightUpLeg  -11.9894 0.0623266 6.94965
RightLeg  18.0562 10.0224 1.90731
RightFoot  -11.2049 -0.0485107 4.56626
RightToes  -5.82073e-011 -3.18055e-015 -2.98177e-016
Spine  9.5917 -0.426709 11.613
Spine1  -1.41555 1.27401 -4.02682
HEad  -16.5762 13.161 -6.83752
LeftShoulder1  -3.88251e-019 9.70628e-020 -3.87848e-018
LeftArm  0.25497 26.0499 -85.3766
LeftForeArm  -3.74456 -44.2306 10.9381
LeftHand  -1.20221 -10.3541 9.37384
RightShoulder  6.49576 9.95671 31.4121
RightArm  2.67934 -19.8419 52.0262
RightForeArm  -24.2957 29.7761 -14.8785
RightHand  -1.73301 2.18676 -25.7578
LeftUpLeg  -13.7641 9.32779 1.44033
LeftLeg  30.4137 4.4879 12.4381
LeftFoot  -14.1224 -0.0992022 -6.53409
LeftToes  5.79026e-011 9.70705e-012 -3.73859e-011
196
root  -9.49511 39.339 40.9795 -1.08365 -11.1299 -1.95271
RightUpLeg  -11.9061 0.0456206 7.07542
RightLeg  17.7109 10.3993 2.36034
RightFoot  -11.1883 -0.0676822 5.59759
RightToes  -5.82073e-011 -3.18055e-015 -2.98177e-016
Spine  8.97148 -0.338132 11.311
Spine1  -0.885372 1.20742 -3.37903
HEad  -16.1344 14.0626 -7.06708
LeftShoulder1  -3.88251e-019 9.70628e-020 -3.87848e-018
LeftArm  0.628662 32.069 -84.396
LeftForeArm  -0.0986625 -43.8822 10.9969
LeftHand  -1.54603 -10.5023 11.8285
RightShoulder  6.65861 10.0336 32.1159
RightArm  6.87787 -23.2784 48.5846
RightForeArm  -22.2741 28.0616 -14.0316
RightHand  -1.37448 2.01669 -21.1821
LeftUpLeg  -12.4806 10.01 0.979097
LeftLeg  28.6008 3.06482 10.84
LeftFoot  -15.7444 -0.214852 -7.52681
LeftToes  5.79026e-011 9.70705e-012 -3.73859e-011
197
root  -9.43297 39.3757 40.9375 -0.803683 -10.9479 -2.21926
RightUpLeg  -11.9033 0.112267 7.14049
RightLeg  17.0975 9.98288 2.44502
RightFoot  -11.1033 -0.0858694 6.33515
RightToes  -5.82073e-011 -3.18055e-015 -2.98177e-016
Spine  8.25242 -0.372732 10.4183
Spine1  -0.477723 0.840806 -2.16744
HEad  -16.0705 14.8813 -7.28025
LeftShoulder1  -3.88251e-019 9.70628e-020 -3.87848e-018
LeftArm  1.32901 38.0991 -83.6015
LeftForeArm  -0.453018 -41.1972 9.9295
LeftHand  -1.75035 -10.5794 13.3017
RightShoulder  6.88705 10.1498 33.0704
RightArm  13.552 -26.8495 43.5247
RightForeArm  -13.8865 26.0797 -13.3746
RightHand  -1.38435 3.31545 -18.1785
LeftUpLeg  -11.378 9.78088 0.259379
LeftLeg  25.9386 1.55245 9.0241
LeftFoot  -15.6862 -0.200254 -6.87094
LeftToes  5.79026e-011 9.70705e-012 -3.73859e-011
198
root  -9.38212 39.4641 40.8935 -0.650628 -10.4498 -2.29258
RightUpLeg  -11.4917 0.276277 7.04548
RightLeg  15.8488 9.22021 2.40034
RightFoot  -10.8695 -0.109552 6.80951
RightToes  -5.82073e-011 -3.18055e-015 -2.98177e-016
Spine  7.94354 -0.366628 8.90976
Spine1  -0.451196 0.475221 -0.872051
HEad  -16.1273 15.3595 -7.19629
LeftShoulder1  -3.88251e-019 9.70628e-020 -3.87848e-018
LeftArm  -0.600293 43.3847 -83.3298
LeftForeArm  -0.265808 -35.4861 8.10494
LeftHand  -1.13302 -10.2453 8.80637
RightShoulder  7.15691 10.2709 34.2102
RightArm  22.0706 -30.5368 36.9298
RightForeArm  -5.50276 24.3312 -12.8604
RightHand  -1.3998 4.21693 -16.7049
LeftUpLeg  -10.2118 8.10117 -0.583145
LeftLeg  22.8884 1.70503 8.0717
LeftFoot  -14.1348 -0.0820026 -4.60899
LeftToes  5.79026e-011 9.70705e-012 -3.73859e-011
